<svg data-v-0dd9719b="" version="1.0" xmlns="http://www.w3.org/2000/svg" xmlns:xlink="http://www.w3.org/1999/xlink" width="100%" height="100%" viewBox="0 0 340.000000 250.000000" preserveAspectRatio="xMidYMid meet" color-interpolation-filters="sRGB" style="margin: auto;"> <rect data-v-0dd9719b="" x="0" y="0" width="100%" height="100%" fill="#fff" fill-opacity="1" class="background"></rect> <rect data-v-0dd9719b="" x="0" y="0" width="100%" height="100%" fill="url(#watermark)" fill-opacity="1" class="watermarklayer"></rect> <g data-v-0dd9719b="" fill="#333" class="icon-text-wrapper icon-svg-group iconsvg" transform="translate(48.15766143798828,90.71036529541016)"><g class="iconsvg-imagesvg" transform="translate(0,0)"><g><rect fill="#333" fill-opacity="0" stroke-width="2" x="0" y="0" width="60" height="68.57926620185164" class="image-rect"></rect> <svg x="0" y="0" width="60" height="68.57926620185164" filtersec="colorsb159319853" class="image-svg-svg primary" style="overflow: visible;"><svg xmlns="http://www.w3.org/2000/svg" viewBox="0 0 87.48999786376953 100"><path d="M43.73 48.5l5.75-3.32-23.2-13.39a11.24 11.24 0 0 1-8.28-.74c-2.77-1.6-2.77-4.18 0-5.78a11.06 11.06 0 0 1 10 0c2.24 1.29 2.67 3.25 1.27 4.79l23.2 13.39 9.89-5.71-23.19-13.39a11.24 11.24 0 0 1-8.29-.74c-2.77-1.6-2.77-4.18 0-5.78a11 11 0 0 1 10 0c2.24 1.3 2.67 3.25 1.28 4.79L65.37 36l9.89-5.71-23.2-13.38a11.31 11.31 0 0 1-8.3-.73c-2.77-1.6-2.76-4.2 0-5.79a11.08 11.08 0 0 1 10 0c2.24 1.29 2.66 3.25 1.26 4.79l23.2 13.39 7.49-4.32L43.73 0l-42 24.25z" fill="#0087ff"></path><path d="M42 51.5l-5.74-3.32V75a11.24 11.24 0 0 1 3.5 7.54c0 3.2-2.24 4.5-5 2.9a11.07 11.07 0 0 1-5-8.68c0-2.59 1.47-3.93 3.51-3.49V46.45l-9.89-5.71v26.79a11.25 11.25 0 0 1 3.51 7.54c0 3.2-2.24 4.5-5 2.9a11.07 11.07 0 0 1-5-8.68c0-2.58 1.48-3.93 3.51-3.49V39l-9.92-5.7v26.79A11.26 11.26 0 0 1 14 67.64c0 3.2-2.24 4.48-5 2.89a11.09 11.09 0 0 1-5-8.68c0-2.59 1.48-3.93 3.51-3.49V31.57L0 27.25v48.5L42 100z" fill="#2a3294"></path><path d="M45.46 51.5V100l5.75-3.32V67.89c-2 .44-3.51-.9-3.51-3.49a11.07 11.07 0 0 1 5-8.68c2.77-1.6 5-.3 5 2.9a11.25 11.25 0 0 1-3.51 7.54V95l9.89-5.71V60.45c-2 .44-3.51-.9-3.51-3.49a11.07 11.07 0 0 1 5-8.68c2.77-1.6 5-.3 5 2.9a11.25 11.25 0 0 1-3.51 7.54v28.79L77 81.8V53c-2 .44-3.52-.9-3.52-3.49a11.08 11.08 0 0 1 5-8.68c2.76-1.59 5-.31 5 2.89A11.27 11.27 0 0 1 80 51.28v28.79l7.49-4.32v-48.5z" fill="#ff006f"></path></svg></svg> <!----></g></g> <g transform="translate(67,10.350885391235352)"><g data-gra="path-name" fill-rule="" class="tp-name iconsvg-namesvg" transform="translate(0,0)"><g transform="scale(1)"><g><path d="M29.16 0.25L11.05 0.25Q10.12 0.25 9.54-0.32 8.96-0.9 8.96-1.84L8.96-1.84 8.96-11.48Q6.84-8.68 4.14-6.3L4.14-6.3Q3.02-5.4 2.12-6.37L2.12-6.37Q1.19-7.42 2.41-8.42L2.41-8.42Q5.9-11.41 8.71-15.95L8.71-15.95Q11.23-20.02 12.78-24.73L12.78-24.73 3.92-24.73Q2.63-24.73 2.63-26.06L2.63-26.06Q2.63-27.36 3.92-27.36L3.92-27.36 32.15-27.36Q33.44-27.36 33.44-26.06L33.44-26.06Q33.44-24.73 32.15-24.73L32.15-24.73 15.8-24.73Q14.04-19.73 11.52-15.37L11.52-15.37 29.16-15.37Q30.1-15.37 30.67-14.8 31.25-14.22 31.25-13.28L31.25-13.28 31.25-1.84Q31.25-0.9 30.67-0.32 30.1 0.25 29.16 0.25L29.16 0.25ZM12.35-2.34L12.35-2.34 27.76-2.34Q28.51-2.34 28.51-3.1L28.51-3.1 28.51-12.06Q28.51-12.82 27.76-12.82L27.76-12.82 11.59-12.82 11.59-3.1Q11.59-2.34 12.35-2.34ZM51.16 2.81Q50.8 2.84 50 2.81L50 2.81Q49.57 2.81 49.36 2.81L49.36 2.81Q48.06 2.74 47.77 1.76L47.77 1.76Q47.3 0.22 49.43 0.32L49.43 0.32Q49.86 0.36 50.62 0.36L50.62 0.36Q52.27 0.36 53.06-0.32L53.06-0.32Q54.07-1.08 54.43-2.88L54.43-2.88Q54.79-4.75 54.25-6.98L54.25-6.98Q51.59-4.75 47.84-2.66L47.84-2.66Q44.21-0.61 40.61 0.72L40.61 0.72Q39.56 1.08 38.99 0.14L38.99 0.14Q38.56-0.54 38.74-0.95 38.92-1.37 39.74-1.62L39.74-1.62Q43.52-2.88 47.3-4.97L47.3-4.97Q51.12-7.09 53.46-9.32L53.46-9.32Q53.06-10.3 52.24-11.63L52.24-11.63Q50.22-10.15 47.34-8.57L47.34-8.57Q44.5-7.06 41.87-6.01L41.87-6.01Q40.86-5.62 40.28-6.48L40.28-6.48Q39.82-7.16 39.98-7.54 40.14-7.92 40.93-8.17L40.93-8.17Q43.63-9.07 46.4-10.48L46.4-10.48Q49.25-11.88 51.01-13.25L51.01-13.25Q50.18-14.15 49.36-14.87L49.36-14.87Q45.9-13.1 41.65-11.77L41.65-11.77Q40.68-11.45 40.07-12.28L40.07-12.28Q39.17-13.54 40.79-13.97L40.79-13.97Q47.41-15.8 51.55-18.54L51.55-18.54 45.11-18.54Q43.96-18.54 43.96-19.69 43.96-20.84 45.11-20.84L45.11-20.84 62.71-20.84Q63.86-20.84 63.86-19.69 63.86-18.54 62.71-18.54L62.71-18.54 57.6-18.54Q58.39-15.59 59.87-12.53L59.87-12.53Q63.04-14.51 65.52-16.6L65.52-16.6Q66.35-17.35 67.28-16.52L67.28-16.52Q68.36-15.55 67.28-14.65L67.28-14.65Q64.87-12.82 60.98-10.48L60.98-10.48Q64.08-5.51 68.44-3.17L68.44-3.17Q70.13-2.41 69.08-1.04L69.08-1.04Q68.33-0.04 67.14-0.65L67.14-0.65Q58.61-5.4 55.26-18.54L55.26-18.54 55.19-18.54Q53.6-17.21 51.55-16.02L51.55-16.02Q54.76-13.21 56.23-9.36L56.23-9.36Q57.53-5.9 57.13-2.74L57.13-2.74Q56.74 0.36 54.94 1.62L54.94 1.62Q54.07 2.3 53.21 2.56L53.21 2.56Q52.38 2.81 51.16 2.81L51.16 2.81ZM40.68-19.84L40.68-19.84Q39.38-19.84 39.38-21.13L39.38-21.13 39.38-24.84Q39.38-25.78 39.96-26.35 40.54-26.93 41.47-26.93L41.47-26.93 52.63-26.93 52.63-28.76Q52.63-30.1 53.96-30.1L53.96-30.1Q55.3-30.1 55.3-28.76L55.3-28.76 55.3-26.93 66.74-26.93Q67.68-26.93 68.26-26.35 68.83-25.78 68.83-24.84L68.83-24.84 68.83-21.17Q68.83-19.84 67.5-19.84L67.5-19.84Q66.13-19.84 66.13-21.17L66.13-21.17 66.13-23.69Q66.13-24.44 65.38-24.44L65.38-24.44 42.73-24.44Q41.98-24.44 41.98-23.69L41.98-23.69 41.98-21.13Q41.98-19.84 40.68-19.84ZM76.36 1.4Q75.67 2.77 74.48 1.98L74.48 1.98Q73.44 1.26 74.09 0L74.09 0Q76.61-5.54 76.61-16.2L76.61-16.2 76.61-23.4Q76.61-24.34 77.18-24.91 77.76-25.49 78.7-25.49L78.7-25.49 89.68-25.49 89.68-28.76Q89.68-30.1 91.04-30.1L91.04-30.1Q92.38-30.1 92.38-28.76L92.38-28.76 92.38-25.49 104.76-25.49Q106.02-25.49 106.02-24.23L106.02-24.23Q106.02-22.93 104.76-22.93L104.76-22.93 79.96-22.93Q79.2-22.93 79.2-22.18L79.2-22.18 79.2-16.2Q79.2-4.93 76.36 1.4L76.36 1.4ZM104.8 1.62L81 1.62Q79.74 1.62 79.74 0.36L79.74 0.36Q79.74-0.94 81-0.94L81-0.94 91.44-0.94 91.44-11.77 83.41-11.77Q82.12-11.77 82.12-13.07 82.12-14.36 83.41-14.36L83.41-14.36 91.44-14.36 91.44-20.56Q91.44-21.89 92.81-21.89L92.81-21.89Q94.14-21.89 94.14-20.56L94.14-20.56 94.14-14.36 102.96-14.36Q104.26-14.36 104.26-13.07 104.26-11.77 102.96-11.77L102.96-11.77 94.14-11.77 94.14-0.94 104.8-0.94Q106.06-0.94 106.06 0.36L106.06 0.36Q106.06 1.62 104.8 1.62L104.8 1.62ZM112.5 2.74L112.5 2.74Q111.2 2.74 111.2 1.44L111.2 1.44 111.2-20.63Q111.2-21.92 112.5-21.92L112.5-21.92Q113.8-21.92 113.8-20.63L113.8-20.63 113.8 1.44Q113.8 2.74 112.5 2.74ZM134.46 2.74L134.46 2.74Q132.73 2.74 132.34 1.66L132.34 1.66Q131.76 0 134.21 0.07L134.21 0.07Q136.84 0.07 137.3 0.04L137.3 0.04Q138.2 0.04 138.2-0.83L138.2-0.83 138.2-25.24Q138.2-25.99 137.45-25.99L137.45-25.99 122.22-25.99Q120.92-25.99 120.92-27.29 120.92-28.58 122.22-28.58L122.22-28.58 138.71-28.58Q139.64-28.58 140.22-28.01 140.8-27.43 140.8-26.5L140.8-26.5 140.8-0.83Q140.8 0.47 140.42 1.19 140.04 1.91 139.18 2.23L139.18 2.23Q138.02 2.66 134.46 2.74ZM118.87-4.57Q117.58-3.6 116.75-4.82 115.92-6.05 117.29-6.98L117.29-6.98Q120.24-9.25 122.22-12.71L122.22-12.71Q124.27-16.2 125.39-20.95L125.39-20.95Q125.68-22.36 126.97-22.14L126.97-22.14Q128.38-21.92 128.05-20.48L128.05-20.48Q127.33-17.68 126.68-15.95L126.68-15.95Q131.72-11.38 134.93-6.8L134.93-6.8Q135.22-6.34 135.14-5.98L135.14-5.98Q135.07-5.65 134.64-5.18L134.64-5.18Q134.06-4.5 133.67-4.46L133.67-4.46Q133.24-4.39 132.8-5.04L132.8-5.04Q129.82-9.25 125.64-13.43L125.64-13.43Q123.12-8.03 118.87-4.57L118.87-4.57ZM119.09-22.5Q117.94-21.74 117.32-22.75L117.32-22.75Q116.57-23.9 115.63-25.06L115.63-25.06Q114.73-26.21 113.51-27.61L113.51-27.61Q112.64-28.55 113.8-29.27L113.8-29.27Q114.66-29.81 115.34-29.09L115.34-29.09Q117.86-26.42 119.56-24.08L119.56-24.08Q119.88-23.58 119.77-23.18L119.77-23.18Q119.63-22.86 119.09-22.5L119.09-22.5ZM177.19 2.12Q176.44 3.1 175.18 2.59L175.18 2.59Q172.66 1.8 171.9-5.83L171.9-5.83Q171.43-10.66 171.47-24.41L171.47-24.41Q171.47-25.63 170.71-25.63L170.71-25.63 164.63-25.63 164.63-15.41 168.91-15.41Q170.14-15.41 170.14-14.18L170.14-14.18Q170.14-12.92 168.91-12.92L168.91-12.92 164.63-12.92 164.63 1.01Q164.63 2.23 163.4 2.23L163.4 2.23Q162.14 2.23 162.14 1.01L162.14 1.01 162.14-12.92 157.97-12.92Q156.74-12.92 156.74-14.18L156.74-14.18Q156.74-15.41 157.97-15.41L157.97-15.41 162.14-15.41 162.14-25.63 158.22-25.63Q156.96-25.63 156.96-26.89 156.96-28.15 158.22-28.15L158.22-28.15 172.04-28.15Q174.13-28.15 174.1-24.8L174.1-24.8Q173.99-12.46 174.31-7.52L174.31-7.52Q174.74-0.5 176.22-0.11L176.22-0.11Q176.47-0.07 176.72-2.77L176.72-2.77Q176.8-3.92 177.08-4.43L177.08-4.43Q177.48-5.04 178.06-4.36L178.06-4.36Q178.49-3.85 178.38-2.05L178.38-2.05Q178.02 1.04 177.19 2.12L177.19 2.12ZM150.77 0.94L150.77 0.94 150.7 0.9Q150.16 0.72 149.87 0.14L149.87 0.14 149.83 0.11 149.8 0.04Q149.47-0.4 149.51-0.88 149.54-1.37 149.87-1.66L149.87-1.66Q150.8-2.74 150.8-4.03L150.8-4.03 150.8-15.55Q150.8-16.31 150.05-16.31L150.05-16.31 147.13-16.31Q145.84-16.31 145.84-17.6 145.84-18.9 147.13-18.9L147.13-18.9 151.6-18.9Q152.42-18.9 152.89-18.43 153.36-17.96 153.36-17.14L153.36-17.14 153.36-4.46 155.84-6.37Q157.03-7.27 157.61-5.98L157.61-5.98Q157.79-5.54 157.25-4.72L157.25-4.72Q156.78-4.07 156.24-3.64L156.24-3.64Q151.45 0.22 150.77 0.94ZM154.26-23.33Q153.18-22.32 152.39-23.4L152.39-23.4Q151.6-24.41 151.06-24.98L151.06-24.98Q150.16-26.03 149.18-26.96L149.18-26.96Q148.36-27.79 149.29-28.62L149.29-28.62Q150.12-29.34 150.91-28.62L150.91-28.62Q153.22-26.5 154.51-24.91L154.51-24.91Q154.87-24.44 154.8-24.08L154.8-24.08Q154.73-23.76 154.26-23.33L154.26-23.33Z" transform="translate(-1.7177209854125977, 30.100000381469727)"></path></g> <!----> <!----> <!----> <!----> <!----> <!----> <!----></g></g> <g data-gra="path-slogan" fill-rule="" class="tp-slogan iconsvg-slogansvg" fill="#333" transform="translate(4.576515197753906,38.92499923706055)"><!----> <!----> <g transform="scale(1, 1)"><g transform="scale(1)"><path d="M7.17-6.09L7.17-6.09L6.09-6.09Q6-7.73 3.94-7.83L3.94-7.83Q2.02-7.78 2.02-6.33L2.02-6.33Q2.02-5.39 3.05-5.25L3.05-5.25L5.48-4.69Q7.41-4.22 7.41-2.34L7.41-2.34Q7.36 0.05 4.03 0.14L4.03 0.14Q2.20 0.14 1.45-0.61L1.45-0.61Q0.52-1.31 0.56-2.77L0.56-2.77L1.69-2.77Q1.73-0.80 4.03-0.75L4.03-0.75Q6.28-0.80 6.33-2.20L6.33-2.20Q6.52-3.38 4.45-3.75L4.45-3.75L2.67-4.13Q0.84-4.64 0.84-6.19L0.84-6.19Q0.98-8.72 3.84-8.81L3.84-8.81Q7.08-8.81 7.17-6.09ZM10.03-5.06L14.53-5.06L14.53-8.58L15.70-8.58L15.70 0L14.53 0L14.53-3.98L10.03-3.98L10.03 0L8.86 0L8.86-8.58L10.03-8.58L10.03-5.06ZM17.67-8.58L18.84-8.58L18.84 0L17.67 0L17.67-8.58ZM20.11-1.92L20.11-2.77L21.19-2.77L21.19-2.16Q21.19-0.75 22.50-0.75L22.50-0.75Q23.86-0.75 23.86-2.25L23.86-2.25L23.86-8.58L25.03-8.58L25.03-2.30Q24.98 0.09 22.55 0.14L22.55 0.14Q20.25 0.09 20.11-1.92L20.11-1.92ZM27-8.58L28.17-8.58L28.17 0L27 0L27-8.58ZM35.81 0L34.97-2.48L31.50-2.48L30.61 0L29.44 0L32.67-8.58L33.98-8.58L37.08 0L35.81 0ZM33.23-7.31L31.88-3.52L34.55-3.52L33.28-7.31L33.23-7.31ZM38.95-1.03L44.25-1.03L44.25 0L37.50 0L37.50-0.94L42.75-7.59L37.88-7.59L37.88-8.58L44.25-8.58L44.25-7.59L38.95-1.03ZM46.55-5.06L51.05-5.06L51.05-8.58L52.22-8.58L52.22 0L51.05 0L51.05-3.98L46.55-3.98L46.55 0L45.38 0L45.38-8.58L46.55-8.58L46.55-5.06ZM59.67-3.19L59.67-8.58L60.84-8.58L60.84-3.05Q60.70 0.05 57.33 0.14L57.33 0.14Q54.19 0.05 54.05-2.86L54.05-2.86L54.05-8.58L55.22-8.58L55.22-3.19Q55.27-0.84 57.38-0.80L57.38-0.80Q59.67-0.84 59.67-3.19L59.67-3.19ZM68.30 0L67.45-2.48L63.98-2.48L63.09 0L61.92 0L65.16-8.58L66.47-8.58L69.56 0L68.30 0ZM65.72-7.31L64.36-3.52L67.03-3.52L65.77-7.31L65.72-7.31ZM72-8.58L76.31-1.64L76.31-8.58L77.44-8.58L77.44 0L76.13 0L71.77-6.94L71.72-6.94L71.72 0L70.59 0L70.59-8.58L72-8.58ZM85.64-3.61L83.02-3.61L83.02-4.59L86.77-4.59L86.77 0L86.02 0L85.73-1.08Q84.75 0.09 82.92 0.14L82.92 0.14Q81.19 0.14 80.25-0.75L80.25-0.75Q78.84-2.06 78.89-4.36L78.89-4.36Q79.22-8.63 82.97-8.81L82.97-8.81Q86.16-8.63 86.63-6L86.63-6L85.50-6Q85.03-7.78 82.92-7.83L82.92-7.83Q80.25-7.64 80.11-4.31L80.11-4.31Q80.11-0.75 82.97-0.75L82.97-0.75Q84-0.75 84.75-1.31L84.75-1.31Q85.69-2.06 85.64-3.61L85.64-3.61ZM97.41-3.89L93.19-3.89L93.19 0L92.02 0L92.02-8.58L97.97-8.58L97.97-7.59L93.19-7.59L93.19-4.92L97.41-4.92L97.41-3.89ZM99.14-8.58L100.31-8.58L100.31-1.03L104.67-1.03L104.67 0L99.14 0L99.14-8.58ZM111.47 0L110.63-2.48L107.16-2.48L106.27 0L105.09 0L108.33-8.58L109.64-8.58L112.73 0L111.47 0ZM108.89-7.31L107.53-3.52L110.20-3.52L108.94-7.31L108.89-7.31ZM120.05-6.09L120.05-6.09L118.97-6.09Q118.88-7.73 116.81-7.83L116.81-7.83Q114.89-7.78 114.89-6.33L114.89-6.33Q114.89-5.39 115.92-5.25L115.92-5.25L118.36-4.69Q120.28-4.22 120.28-2.34L120.28-2.34Q120.23 0.05 116.91 0.14L116.91 0.14Q115.08 0.14 114.33-0.61L114.33-0.61Q113.39-1.31 113.44-2.77L113.44-2.77L114.56-2.77Q114.61-0.80 116.91-0.75L116.91-0.75Q119.16-0.80 119.20-2.20L119.20-2.20Q119.39-3.38 117.33-3.75L117.33-3.75L115.55-4.13Q113.72-4.64 113.72-6.19L113.72-6.19Q113.86-8.72 116.72-8.81L116.72-8.81Q119.95-8.81 120.05-6.09ZM122.91-5.06L127.41-5.06L127.41-8.58L128.58-8.58L128.58 0L127.41 0L127.41-3.98L122.91-3.98L122.91 0L121.73 0L121.73-8.58L122.91-8.58L122.91-5.06ZM135.09-8.58L139.41-1.64L139.41-8.58L140.53-8.58L140.53 0L139.22 0L134.86-6.94L134.81-6.94L134.81 0L133.69 0L133.69-8.58L135.09-8.58ZM143.63-1.03L148.78-1.03L148.78 0L142.45 0L142.45-8.58L148.69-8.58L148.69-7.59L143.63-7.59L143.63-4.92L148.31-4.92L148.31-3.89L143.63-3.89L143.63-1.03ZM155.06-7.13L155.02-7.13L153.05 0L151.83 0L149.58-8.58L150.80-8.58L152.44-1.59L152.48-1.59L154.41-8.58L155.67-8.58L157.59-1.59L157.64-1.59L159.23-8.58L160.50-8.58L158.25 0L157.03 0L155.06-7.13ZM167.86-6.09L167.86-6.09L166.78-6.09Q166.69-7.73 164.63-7.83L164.63-7.83Q162.70-7.78 162.70-6.33L162.70-6.33Q162.70-5.39 163.73-5.25L163.73-5.25L166.17-4.69Q168.09-4.22 168.09-2.34L168.09-2.34Q168.05 0.05 164.72 0.14L164.72 0.14Q162.89 0.14 162.14-0.61L162.14-0.61Q161.20-1.31 161.25-2.77L161.25-2.77L162.38-2.77Q162.42-0.80 164.72-0.75L164.72-0.75Q166.97-0.80 167.02-2.20L167.02-2.20Q167.20-3.38 165.14-3.75L165.14-3.75L163.36-4.13Q161.53-4.64 161.53-6.19L161.53-6.19Q161.67-8.72 164.53-8.81L164.53-8.81Q167.77-8.81 167.86-6.09Z" transform="translate(-0.5602678571428572, 8.8125)"></path></g></g></g></g></g><defs v-gra="od"></defs></svg>